<?xml version="1.0" encoding="UTF-8"?>
<svg width="1000px" height="1000px" viewBox="0 0 1000 1000" version="1.1" xmlns="http://www.w3.org/2000/svg" xmlns:xlink="http://www.w3.org/1999/xlink">
    <title>down</title>
    <g id="down" stroke="none" stroke-width="1"  fill-rule="evenodd">
        <path d="M499.663148,56 C523.195027,56 542.271384,75.0763573 542.271384,98.6082367 L542.271,805.299 L753.589486,593.981249 C770.062642,577.508093 796.668553,577.343362 813.344364,593.487054 L813.846632,593.981249 C830.319788,610.454405 830.484519,637.060317 814.340827,653.736128 L813.846632,654.238395 L539.834578,928.250449 C517.870371,950.214656 482.395822,950.434299 460.161407,928.909375 L459.491717,928.250449 L185.479664,654.238395 C168.840112,637.598844 168.840112,610.6208 185.479664,593.981249 C201.95282,577.508093 228.558731,577.343362 245.234542,593.487054 L245.73681,593.981249 L457.054,805.298 L457.054911,98.6082367 C457.054911,75.0763573 476.131268,56 499.663148,56 Z" id="路径" ></path>
    </g>
</svg>